<?xml version="1.0" encoding="UTF-8"?> <!-- Generator: Adobe Illustrator 22.1.0, SVG Export Plug-In . SVG Version: 6.00 Build 0) --> <svg xmlns="http://www.w3.org/2000/svg" xmlns:xlink="http://www.w3.org/1999/xlink" id="Layer_1" x="0px" y="0px" viewBox="0 0 1083.3 108.6" style="enable-background:new 0 0 1083.3 108.6;" xml:space="preserve"> <style type="text/css"> .st0{fill:#FFEB00;} </style> <title>LOGO</title> <g id="Layer_2_1_"> <g id="Layer_1-2"> <path class="st0" d="M128.1,53.5c0,37-20.3,55-64,55c-43.9,0-64-17.8-64-55h27.4c0,14.9,4.1,32,36.6,32s36.6-17.2,36.6-32V23.4H50 v-23h78.1V53.5z"></path> <path class="st0" d="M173,23.4v27.1h76.2v23.2H173v33.4h-27.4V0.3h112.8v23L173,23.4z"></path> <path class="st0" d="M336.7,108.6c-47,0-67.1-17.8-67.1-55V0.3h27.4v53.2c0,14.9,4.1,32,39.6,32s39.6-17.2,39.6-32V0.3h27.4v53.2 C403.8,90.6,383.5,108.6,336.7,108.6z"></path> <path class="st0" d="M546.3,23.4h-51.8v83.7H467V23.4h-51.8v-23h131.1V23.4z"></path> <path class="st0" d="M624.8,108.6c-47,0-67.1-17.8-67.1-55V0.3h27.4v53.2c0,14.9,4.1,32,39.6,32s39.6-17.2,39.6-32V0.3h27.4v53.2 C691.8,90.6,671.6,108.6,624.8,108.6z"></path> <path class="st0" d="M810.9,75.3l19.7,31.7h-32.3L781,78.5h-44.2v28.5h-27.4V0.3h83.8c24.2,0,40.9,15.4,40.9,39.2 C834,56.9,825.2,69.7,810.9,75.3z M736.8,55.5h48.8c8.2,0,21,0,21-16c0-16.2-12.8-16.2-21-16.2h-48.8V55.5z"></path> <path class="st0" d="M876,22.1v21.6h85.4v19.8H876v21.7h85.4v21.8H848.5V0.3h112.8v21.8H876z"></path> <path class="st0" d="M1002.3,14h10.9v6.3h-22.4v-3.5c0-7.5,15.2-6.8,15.2-9.5c0-0.9-0.7-1-3.2-1s-4.3,0-4.3,1.9h-7.4 c0-6.8,4.7-8.1,11.5-8.1s10.9,1.3,10.9,6.3C1013.5,12.7,1003.8,11.8,1002.3,14z"></path> <path class="st0" d="M1014.9,10.2c0-6.9,3.8-10.2,11.7-10.2c7.9,0,11.7,3.3,11.7,10.2s-3.8,10.3-11.7,10.3 S1014.9,17.2,1014.9,10.2z M1030.9,10.2c0-2.1-0.7-4-4.3-4s-4.3,1.9-4.3,4s0.8,4,4.3,4S1030.9,12.3,1030.9,10.2L1030.9,10.2z"></path> <path class="st0" d="M1058.9,14v6.3h-18.8V14h5.7l0.1-6.5c-2.2,1.9-3.7,1.9-5.8,1.9V3.1c2.9,0,5.7,0,5.7-2.8h7.4V14H1058.9z"></path> <path class="st0" d="M1082.5,9.8c0,8.3-4.9,10.8-10.8,10.8c-3.6,0-7.2-0.4-10.7-1.2v-5.7c3.1,0.7,6.3,1.1,9.4,1.2 c2.7,0,4-0.7,4.5-3.1c-1.9,1.1-4.1,1.6-6.3,1.5c-5.2,0-9-2.1-9-6.4c0-4.7,3.8-6.9,10.8-6.9C1078.7,0,1082.5,3.3,1082.5,9.8z M1075.1,7.9c0-1.4-0.8-2.2-4-2.2s-4,0.8-4,2.2s0.7,2.1,4,2.1S1075.1,9.3,1075.1,7.9z"></path> <path class="st0" d="M1013.2,26.8c21.6,0,24.3,20.4,39.4,20.4c7.7,0,11-4.6,11-20.4h19.7c0,24.2-6.4,38.7-26.6,38.7 c-21.6,0-24.3-20.4-39.4-20.4c-7.7,0-11,4.6-11,20.4h-19.7C986.6,41.3,993,26.8,1013.2,26.8z"></path> <path class="st0" d="M1013.2,68.4c21.6,0,24.3,20.4,39.4,20.4c7.7,0,11-4.6,11-20.4h19.7c0,24.2-6.4,38.7-26.6,38.7 c-21.6,0-24.3-20.4-39.4-20.4c-7.7,0-11,4.6-11,20.4h-19.7C986.6,82.9,993,68.4,1013.2,68.4z"></path> </g> </g> </svg> 